REM DIRINDEX 1\2\3,1\2\4,1\2\5,1\2\6
REM DIRNAME folder01,folder02,folder03,folder04,folder05,folder06
TITLE ""
FILE "189 189.mp3" MP3
  TRACK 01 AUDIO
    TITLE "0:"
    INDEX 01 00:00:00
  TRACK 02 AUDIO
    TITLE "3:cjc157_6820"
    INDEX 01 00:00:09
  TRACK 03 AUDIO
    TITLE "0:"
    INDEX 01 00:01:52
  TRACK 04 AUDIO
    TITLE "4:cjc157_6821"
    INDEX 01 00:02:26
  TRACK 05 AUDIO
    TITLE "0:"
    INDEX 01 00:04:25
  TRACK 06 AUDIO
    TITLE "5:cjc157_6822"
    INDEX 01 00:04:70
  TRACK 07 AUDIO
    TITLE "0:"
    INDEX 01 00:07:51
  TRACK 08 AUDIO
    TITLE "5:cjc157_6823"
    INDEX 01 00:08:19
  TRACK 09 AUDIO
    TITLE "0:"
    INDEX 01 00:12:36
  TRACK 10 AUDIO
    TITLE "3:cjc157_6824"
    INDEX 01 00:13:06
  TRACK 11 AUDIO
    TITLE "0:"
    INDEX 01 00:14:53
  TRACK 12 AUDIO
    TITLE "4:cjc157_6825"
    INDEX 01 00:15:27
  TRACK 13 AUDIO
    TITLE "0:"
    INDEX 01 00:17:25
  TRACK 14 AUDIO
    TITLE "5:cjc157_6826"
    INDEX 01 00:17:70
  TRACK 15 AUDIO
    TITLE "0:"
    INDEX 01 00:20:36
  TRACK 16 AUDIO
    TITLE "5:cjc157_6827"
    INDEX 01 00:21:06
  TRACK 17 AUDIO
    TITLE "0:"
    INDEX 01 00:23:67
  TRACK 18 AUDIO
    TITLE "3:cjc157_6828"
    INDEX 01 00:24:43
  TRACK 19 AUDIO
    TITLE "0:"
    INDEX 01 00:26:24
  TRACK 20 AUDIO
    TITLE "4:cjc157_6829"
    INDEX 01 00:26:67
  TRACK 21 AUDIO
    TITLE "0:"
    INDEX 01 00:29:11
  TRACK 22 AUDIO
    TITLE "5:cjc157_6830"
    INDEX 01 00:29:58
  TRACK 23 AUDIO
    TITLE "0:"
    INDEX 01 00:33:28
  TRACK 24 AUDIO
    TITLE "5:cjc157_6831"
    INDEX 01 00:33:69
  TRACK 25 AUDIO
    TITLE "0:"
    INDEX 01 00:37:05
  TRACK 26 AUDIO
    TITLE "3:cjc157_6832"
    INDEX 01 00:37:50
  TRACK 27 AUDIO
    TITLE "0:"
    INDEX 01 00:39:23
  TRACK 28 AUDIO
    TITLE "4:cjc157_6833"
    INDEX 01 00:39:72
  TRACK 29 AUDIO
    TITLE "0:"
    INDEX 01 00:41:42
  TRACK 30 AUDIO
    TITLE "5:cjc157_6834"
    INDEX 01 00:42:14
  TRACK 31 AUDIO
    TITLE "0:"
    INDEX 01 00:44:71
  TRACK 32 AUDIO
    TITLE "3:cjc157_6835"
    INDEX 01 00:45:43
  TRACK 33 AUDIO
    TITLE "0:"
    INDEX 01 00:47:48
  TRACK 34 AUDIO
    TITLE "4:cjc157_6836"
    INDEX 01 00:48:20
  TRACK 35 AUDIO
    TITLE "0:"
    INDEX 01 00:50:23
  TRACK 36 AUDIO
    TITLE "5:cjc157_6837"
    INDEX 01 00:50:64
  TRACK 37 AUDIO
    TITLE "0:"
    INDEX 01 00:53:45
  TRACK 38 AUDIO
    TITLE "3:cjc157_6838"
    INDEX 01 00:54:21
  TRACK 39 AUDIO
    TITLE "0:"
    INDEX 01 00:55:59
  TRACK 40 AUDIO
    TITLE "4:cjc157_6839"
    INDEX 01 00:56:25
  TRACK 41 AUDIO
    TITLE "0:"
    INDEX 01 00:57:56
  TRACK 42 AUDIO
    TITLE "5:cjc157_6840"
    INDEX 01 00:58:22
  TRACK 43 AUDIO
    TITLE "0:"
    INDEX 01 01:02:44
  TRACK 44 AUDIO
    TITLE "3:cjc157_6841"
    INDEX 01 01:03:16
  TRACK 45 AUDIO
    TITLE "0:"
    INDEX 01 01:04:41
  TRACK 46 AUDIO
    TITLE "4:cjc157_6842"
    INDEX 01 01:05:15
  TRACK 47 AUDIO
    TITLE "0:"
    INDEX 01 01:06:34
  TRACK 48 AUDIO
    TITLE "5:cjc157_6843"
    INDEX 01 01:07:06
  TRACK 49 AUDIO
    TITLE "0:"
    INDEX 01 01:09:59
  TRACK 50 AUDIO
    TITLE "5:cjc157_6844"
    INDEX 01 01:10:30
  TRACK 51 AUDIO
    TITLE "0:"
    INDEX 01 01:13:06
  TRACK 52 AUDIO
    TITLE "3:cjc157_6845"
    INDEX 01 01:13:45
  TRACK 53 AUDIO
    TITLE "0:"
    INDEX 01 01:15:09
  TRACK 54 AUDIO
    TITLE "4:cjc157_6846"
    INDEX 01 01:15:52
  TRACK 55 AUDIO
    TITLE "0:"
    INDEX 01 01:17:14
  TRACK 56 AUDIO
    TITLE "5:cjc157_6847"
    INDEX 01 01:17:63
  TRACK 57 AUDIO
    TITLE "0:"
    INDEX 01 01:22:62
  TRACK 58 AUDIO
    TITLE "3:cjc157_6848"
    INDEX 01 01:23:30
  TRACK 59 AUDIO
    TITLE "0:"
    INDEX 01 01:25:13
  TRACK 60 AUDIO
    TITLE "4:cjc157_6849"
    INDEX 01 01:25:57
  TRACK 61 AUDIO
    TITLE "0:"
    INDEX 01 01:29:07
  TRACK 62 AUDIO
    TITLE "5:cjc157_6850"
    INDEX 01 01:29:52
  TRACK 63 AUDIO
    TITLE "0:"
    INDEX 01 01:32:33
  TRACK 64 AUDIO
    TITLE "3:cjc157_6851"
    INDEX 01 01:33:03
  TRACK 65 AUDIO
    TITLE "0:"
    INDEX 01 01:35:02
  TRACK 66 AUDIO
    TITLE "4:cjc157_6852"
    INDEX 01 01:35:49
  TRACK 67 AUDIO
    TITLE "0:"
    INDEX 01 01:42:31
  TRACK 68 AUDIO
    TITLE "5:cjc157_6853"
    INDEX 01 01:43:03
  TRACK 69 AUDIO
    TITLE "0:"
    INDEX 01 01:46:45
